<?xml version="1.0" encoding="UTF-8" standalone="no"?>
<svg
   width="33.420292"
   height="34"
   viewBox="0 0 33.420292 34"
   fill="none"
   version="1.1"
   id="svg3"
   xmlns="http://www.w3.org/2000/svg"
   xmlns:svg="http://www.w3.org/2000/svg">
  <defs
     id="defs3" />
  <path
     d="m 25.07659,14.8437 c 0,-1.4374 -3.8021,-5.8437 -11.4063,-13.2187 0.4375,-0.60417 0.9167,-1.02083 1.4375,-1.25 0.5208,-0.25 0.9167,-0.375 1.1875,-0.375 0.2708,0 0.7292,0.17708 1.375,0.53125 0.6667,0.35417 1.4271,0.83333 2.2813,1.4375 0.875,0.60417 1.8125,1.3125 2.8125,2.125 1,0.81255 2,1.67705 3,2.59375 1,0.8958 1.9583,1.8229 2.875,2.7812 0.9166,0.9376 1.7291,1.8438 2.4375,2.7188 1.5625,1.9583 2.3437,3.4583 2.3437,4.5 0,1.9167 -3.6458,5.3333 -10.9375,10.25 -4.4375,2.9792 -8.2083,5.1458 -11.3125,6.5 C 10.27449,33.8125 9.5869899,34 9.1077899,34 c -0.4583,0 -0.9792,-0.1979 -1.56249,-0.5937 -0.5625,-0.4167 -1.10417,-0.9167 -1.625,-1.5 -1.02084,-1.1876 -1.73959,-2.3438 -2.15625,-3.4688 3.27083,-1.5 8.3125401,-4.4062 15.1250401,-8.7188 4.125,-2.6041 6.1875,-4.2291 6.1875,-4.875 z"
     fill="#e6bf3e"
     id="path1" />
  <path
     d="m 13.23249,13.2879 c 0.0531,-0.8068 -1.9181,-3.4205 -5.9136001,-7.8411 0.26789,-0.3229 0.5522,-0.5391 0.853,-0.6484 0.3016,-0.1211 0.5284,-0.17663 0.6804,-0.16662 0.152,0.01001 0.4028,0.12632 0.7522,0.34902 0.3611,0.2234 0.7702001,0.5205 1.2273001,0.8911 0.4688,0.3715 0.9688,0.8037 1.5,1.2967 0.5313,0.493 1.0606,1.0153 1.588,1.5667 0.5282,0.5398 1.0318,1.0956 1.5109,1.6674 0.4799,0.5601 0.9024,1.0988 1.2677,1.6161 0.8046,1.1569 1.1876,2.0277 1.1491,2.6124 -0.0708,1.0758 -2.2434,2.8587 -6.5179,5.3489 -2.6008001,1.5081 -4.7973601,2.5849 -6.5897401,3.2302 -0.51667,0.1774 -0.90949,0.2572 -1.17844,0.2395 -0.25725,-0.017 -0.54227,-0.1473 -0.85506,-0.391 -0.30032,-0.2547 -0.58587,-0.5553 -0.85664,-0.902 C 1.3206199,21.4525 0.95992989,20.777 0.76764989,20.1301 2.6589599,19.4091 5.5961799,17.9642 9.5792899,15.7955 11.99089,14.4863 13.20859,13.6504 13.23249,13.2879 Z"
     fill="#5d605e"
     id="path2" />
  <path
     d="m 0.69140989,13.4141 c -0.25781,-0.1875 -0.4375,-0.375 -0.53906,-0.5625 C 0.05077989,12.6719 -1.0910129e-7,12.4453 -1.0910129e-7,12.1719 c 0,-0.2735 0.0937499991013,-0.5625 0.28124999910129,-0.8672 0.1875,-0.3047 0.4375,-0.5781 0.75000001,-0.8203 0.71094,-0.5391 1.45313,-0.8086 2.22656,-0.8086 0.77344,0 1.33594,0.1601 1.6875,0.4805 0.35938,0.3203 0.53907,0.7382 0.53907,1.2539 0,0.5859 -0.44531,1.125 -1.33594,1.6171 -0.82031,0.4532 -1.59375,0.6797 -2.32031,0.6797 -0.49219,0 -0.87110001,-0.0976 -1.13672001,-0.2929 z"
     fill="#e6bf3e"
     id="path3" />
</svg>
