<?xml version="1.0" encoding="UTF-8" standalone="no"?>
<svg
   width="128.43019"
   height="34"
   viewBox="0 0 128.43019 34"
   fill="none"
   version="1.1"
   id="svg9"
   xmlns="http://www.w3.org/2000/svg"
   xmlns:svg="http://www.w3.org/2000/svg">
  <defs
     id="defs9" />
  <path
     d="m 25.07659,14.8437 c 0,-1.4374 -3.8021,-5.8437 -11.4063,-13.2187 0.4375,-0.60417 0.9167,-1.02083 1.4375,-1.25 0.5208,-0.25 0.9167,-0.375 1.1875,-0.375 0.2708,0 0.7292,0.17708 1.375,0.53125 0.6667,0.35417 1.4271,0.83333 2.2813,1.4375 0.875,0.60417 1.8125,1.3125 2.8125,2.125 1,0.81255 2,1.67705 3,2.59375 1,0.8958 1.9583,1.8229 2.875,2.7812 0.9166,0.9376 1.7291,1.8438 2.4375,2.7188 1.5625,1.9583 2.3437,3.4583 2.3437,4.5 0,1.9167 -3.6458,5.3333 -10.9375,10.25 -4.4375,2.9792 -8.2083,5.1458 -11.3125,6.5 C 10.27449,33.8125 9.5869899,34 9.1077899,34 c -0.4583,0 -0.9792,-0.1979 -1.56249,-0.5937 -0.5625,-0.4167 -1.10417,-0.9167 -1.625,-1.5 -1.02084,-1.1876 -1.73959,-2.3438 -2.15625,-3.4688 3.27083,-1.5 8.3125401,-4.4062 15.1250401,-8.7188 4.125,-2.6041 6.1875,-4.2291 6.1875,-4.875 z"
     fill="#e6bf3e"
     id="path1" />
  <path
     d="m 13.23249,13.2879 c 0.0531,-0.8068 -1.9181,-3.4205 -5.9136001,-7.8411 0.26789,-0.3229 0.5522,-0.5391 0.853,-0.6484 0.3016,-0.1211 0.5284,-0.17663 0.6804,-0.16662 0.152,0.01001 0.4028,0.12632 0.7522,0.34902 0.3611,0.2234 0.7702001,0.5205 1.2273001,0.8911 0.4688,0.3715 0.9688,0.8037 1.5,1.2967 0.5313,0.493 1.0606,1.0153 1.588,1.5667 0.5282,0.5398 1.0318,1.0956 1.5109,1.6674 0.4799,0.5601 0.9024,1.0988 1.2677,1.6161 0.8046,1.1569 1.1876,2.0277 1.1491,2.6124 -0.0708,1.0758 -2.2434,2.8587 -6.5179,5.3489 -2.6008001,1.5081 -4.7973601,2.5849 -6.5897401,3.2302 -0.51667,0.1774 -0.90949,0.2572 -1.17844,0.2395 -0.25725,-0.017 -0.54227,-0.1473 -0.85506,-0.391 -0.30032,-0.2547 -0.58587,-0.5553 -0.85664,-0.902 C 1.3206199,21.4525 0.95992986,20.777 0.76764986,20.1301 2.6589599,19.4091 5.5961799,17.9642 9.5792899,15.7955 11.99089,14.4863 13.20859,13.6504 13.23249,13.2879 Z"
     fill="#5d605e"
     id="path2" />
  <path
     d="m 0.69140986,13.4141 c -0.25781,-0.1875 -0.4375,-0.375 -0.53906,-0.5625 C 0.05077986,12.6719 -1.3409816e-7,12.4453 -1.3409816e-7,12.1719 c 0,-0.2735 0.0937499940982,-0.5625 0.28124999409816,-0.8672 0.1875,-0.3047 0.4375,-0.5781 0.75000004,-0.8203 0.71094,-0.5391 1.45313,-0.8086 2.22656,-0.8086 0.77344,0 1.33594,0.1601 1.6875,0.4805 0.35938,0.3203 0.53907,0.7382 0.53907,1.2539 0,0.5859 -0.44531,1.125 -1.33594,1.6171 -0.82031,0.4532 -1.59375,0.6797 -2.32031,0.6797 -0.49219,0 -0.87110004,-0.0976 -1.13672004,-0.2929 z"
     fill="#e6bf3e"
     id="path3" />
  <path
     d="m 42.74219,6.0937 h 11.75 c 1.0104,0 1.9271,0.25 2.75,0.75 0.8333,0.4896 1.4948,1.1459 1.9844,1.9688 0.5,0.8229 0.75,1.7396 0.75,2.75 v 2.2188 c 0,1.0104 -0.2448,1.9218 -0.7344,2.7343 -0.4792,0.8125 -1.1354,1.4584 -1.9688,1.9375 -0.8333,0.4792 -1.7656,0.7188 -2.7968,0.7188 l 6.625,9.1406 h -4.0156 l -6.625,-9.1406 h -4.4219 v -3.2813 h 8.4531 c 0.6146,0 1.1354,-0.2083 1.5625,-0.625 0.4271,-0.4271 0.6406,-0.9375 0.6406,-1.5312 v -2.1719 c 0,-0.6042 -0.2135,-1.1198 -0.6406,-1.5469 -0.4271,-0.4271 -0.9479,-0.6406 -1.5625,-0.6406 h -8.4531 v 18.9375 h -3.2969 z"
     fill="#3b3b39"
     id="path4" />
  <path
     d="m 63.55469,7.7187 c 0,-0.5624 0.1979,-1.0416 0.5937,-1.4374 0.3959,-0.3959 0.875,-0.5938 1.4376,-0.5938 0.5624,0 1.0416,0.1979 1.4374,0.5938 0.3959,0.3958 0.5938,0.875 0.5938,1.4374 0,0.5626 -0.1979,1.0417 -0.5938,1.4376 -0.3958,0.3958 -0.875,0.5937 -1.4374,0.5937 -0.5626,0 -1.0417,-0.1979 -1.4376,-0.5937 -0.3958,-0.3959 -0.5937,-0.875 -0.5937,-1.4376 z m 0.375,4.4063 h 3.3125 v 16.1875 h -3.3125 z"
     fill="#3b3b39"
     id="path5" />
  <path
     d="m 70.99219,10.7344 c 0,-0.8542 0.2083,-1.6302 0.625,-2.3281 0.4271,-0.7084 0.9896,-1.2709 1.6875,-1.6876 0.7083,-0.4166 1.4896,-0.625 2.3437,-0.625 h 3.6094 V 9.375 h -3.6094 c -0.375,0 -0.6979,0.1354 -0.9687,0.4063 -0.2604,0.2604 -0.3906,0.5781 -0.3906,0.9531 v 1.3906 h 5.0312 v 3.2813 h -5.0312 v 12.9062 h -3.2969 z"
     fill="#3b3b39"
     id="path6" />
  <path
     d="m 81.52339,12.125 h 2.1094 V 6.0937 h 3.2969 v 6.0313 h 4.9844 v 3.2969 h -4.9844 v 8.2968 c 0,0.3542 0.1354,0.6615 0.4063,0.9219 0.2812,0.25 0.6145,0.375 1,0.375 h 3.5781 v 3.2969 h -3.625 c -0.8542,0 -1.6354,-0.2031 -2.3438,-0.6094 -0.6979,-0.4166 -1.2604,-0.9687 -1.6875,-1.6562 -0.4166,-0.6979 -0.625,-1.4688 -0.625,-2.3125 v -8.3125 h -2.1094 z"
     fill="#3b3b39"
     id="path7" />
  <path
     d="m 94.89839,15.4687 c 0,-0.927 0.3386,-1.7135 1.0157,-2.3593 0.6771,-0.6563 1.4896,-0.9844 2.4371,-0.9844 h 6.75 c 0.865,0 1.646,0.2135 2.344,0.6406 0.708,0.4167 1.271,0.9844 1.688,1.7031 0.427,0.7084 0.64,1.4948 0.64,2.3594 v 0.4532 c 0,0.8541 -0.213,1.6354 -0.64,2.3437 -0.417,0.6979 -0.98,1.2604 -1.688,1.6875 -0.698,0.4167 -1.479,0.625 -2.344,0.625 h -6.906 v -3.2812 h 6.938 c 0.375,0 0.692,-0.1355 0.953,-0.4063 0.271,-0.2708 0.406,-0.599 0.406,-0.9844 v -0.4375 c 0,-0.3958 -0.135,-0.7291 -0.406,-1 -0.261,-0.2708 -0.578,-0.4062 -0.953,-0.4062 h -6.938 v 8.3125 c 0,0.3541 0.12,0.6562 0.359,0.9062 0.24,0.25 0.532,0.375 0.876,0.375 h 9.203 v 3.2969 h -9.203 c -0.834,0 -1.594,-0.2031 -2.2818,-0.6094 -0.6874,-0.4166 -1.2343,-0.9687 -1.6406,-1.6562 -0.4062,-0.6979 -0.6094,-1.4636 -0.6094,-2.2969 z"
     fill="#3b3b39"
     id="path8" />
  <path
     d="m 113.21119,17.9687 c 0,-1.0729 0.26,-2.052 0.781,-2.9374 0.531,-0.8855 1.24,-1.5886 2.125,-2.1094 0.885,-0.5313 1.865,-0.7969 2.937,-0.7969 h 3.532 c 1.073,0 2.052,0.2656 2.937,0.7969 0.886,0.5208 1.589,1.2239 2.11,2.1094 0.531,0.8854 0.797,1.8645 0.797,2.9374 v 4.5 c 0,1.073 -0.266,2.0521 -0.797,2.9376 -0.521,0.8854 -1.224,1.5937 -2.11,2.125 -0.885,0.5208 -1.864,0.7812 -2.937,0.7812 h -3.532 c -1.072,0 -2.052,-0.2604 -2.937,-0.7812 -0.885,-0.5313 -1.594,-1.2396 -2.125,-2.125 -0.521,-0.8855 -0.781,-1.8646 -0.781,-2.9376 z m 3.297,4.4688 c 0,0.7083 0.25,1.3177 0.75,1.8281 0.5,0.5 1.099,0.75 1.796,0.75 h 3.532 c 0.708,0 1.307,-0.25 1.797,-0.75 0.5,-0.5104 0.75,-1.1198 0.75,-1.8281 V 18 c 0,-0.7083 -0.25,-1.3125 -0.75,-1.8125 -0.49,-0.5104 -1.089,-0.7656 -1.797,-0.7656 h -3.532 c -0.697,0 -1.296,0.2552 -1.796,0.7656 -0.5,0.5 -0.75,1.1042 -0.75,1.8125 z"
     fill="#3b3b39"
     id="path9" />
</svg>
